{
    "asset" : {
        "generator" : "Khronos glTF Blender I/O v3.4.50",
        "version" : "2.0"
    },
    "scene" : 0,
    "scenes" : [
        {
            "name" : "Scene",
            "nodes" : [
                1
            ]
        }
    ],
    "nodes" : [
        {
            "mesh" : 0,
            "name" : "leaves"
        },
        {
            "children" : [
                0
            ],
            "mesh" : 1,
            "name" : "tree"
        }
    ],
    "materials" : [
        {
            "doubleSided" : true,
            "name" : "Material.003",
            "pbrMetallicRoughness" : {
                "baseColorFactor" : [
                    0.0033707087859511375,
                    0.049549393355846405,
                    0,
                    1
                ],
                "metallicFactor" : 0,
                "roughnessFactor" : 0.5
            }
        },
        {
            "doubleSided" : true,
            "name" : "Material.002",
            "pbrMetallicRoughness" : {
                "baseColorFactor" : [
                    0.10652826726436615,
                    0.05878177657723427,
                    0.020141715183854103,
                    1
                ],
                "metallicFactor" : 0,
                "roughnessFactor" : 0.5
            }
        }
    ],
    "meshes" : [
        {
            "name" : "leaves",
            "primitives" : [
                {
                    "attributes" : {
                        "POSITION" : 0,
                        "TEXCOORD_0" : 1,
                        "NORMAL" : 2
                    },
                    "indices" : 3,
                    "material" : 0
                }
            ]
        },
        {
            "name" : "tree",
            "primitives" : [
                {
                    "attributes" : {
                        "POSITION" : 4,
                        "TEXCOORD_0" : 5,
                        "NORMAL" : 6
                    },
                    "indices" : 7,
                    "material" : 1
                }
            ]
        }
    ],
    "accessors" : [
        {
            "bufferView" : 0,
            "componentType" : 5126,
            "count" : 865038,
            "max" : [
                11.079400062561035,
                46.6353874206543,
                11.999767303466797
            ],
            "min" : [
                -11.850627899169922,
                12.327823638916016,
                -11.509294509887695
            ],
            "type" : "VEC3"
        },
        {
            "bufferView" : 1,
            "componentType" : 5126,
            "count" : 865038,
            "type" : "VEC2"
        },
        {
            "bufferView" : 2,
            "componentType" : 5126,
            "count" : 865038,
            "type" : "VEC3"
        },
        {
            "bufferView" : 3,
            "componentType" : 5125,
            "count" : 1297656,
            "type" : "SCALAR"
        },
        {
            "bufferView" : 4,
            "componentType" : 5126,
            "count" : 270116,
            "max" : [
                10.946747779846191,
                46.4974479675293,
                11.8352689743042
            ],
            "min" : [
                -11.691197395324707,
                0,
                -11.380023956298828
            ],
            "type" : "VEC3"
        },
        {
            "bufferView" : 5,
            "componentType" : 5126,
            "count" : 270116,
            "type" : "VEC2"
        },
        {
            "bufferView" : 6,
            "componentType" : 5126,
            "count" : 270116,
            "type" : "VEC3"
        },
        {
            "bufferView" : 7,
            "componentType" : 5125,
            "count" : 1241136,
            "type" : "SCALAR"
        }
    ],
    "bufferViews" : [
        {
            "buffer" : 0,
            "byteLength" : 10380456,
            "byteOffset" : 0,
            "target" : 34962
        },
        {
            "buffer" : 0,
            "byteLength" : 6920304,
            "byteOffset" : 10380456,
            "target" : 34962
        },
        {
            "buffer" : 0,
            "byteLength" : 10380456,
            "byteOffset" : 17300760,
            "target" : 34962
        },
        {
            "buffer" : 0,
            "byteLength" : 5190624,
            "byteOffset" : 27681216,
            "target" : 34963
        },
        {
            "buffer" : 0,
            "byteLength" : 3241392,
            "byteOffset" : 32871840,
            "target" : 34962
        },
        {
            "buffer" : 0,
            "byteLength" : 2160928,
            "byteOffset" : 36113232,
            "target" : 34962
        },
        {
            "buffer" : 0,
            "byteLength" : 3241392,
            "byteOffset" : 38274160,
            "target" : 34962
        },
        {
            "buffer" : 0,
            "byteLength" : 4964544,
            "byteOffset" : 41515552,
            "target" : 34963
        }
    ],
    "buffers" : [
        {
            "byteLength" : 46480096,
            "uri" : "FurTree.bin"
        }
    ]
}
